#!OML:ASF F:\VICON\USERDATA\INSTALL\rory3\rory3.ASF
:FULLY-SPECIFIED
:DEGREES
1034
root 4.74199 17.3965 2.70655 5.71159 -12.208 -5.25289
lowerback 11.1697 0.0193348 4.01171
upperback 4.3533 0.452842 1.28462
thorax -1.69431 0.23743 -0.980486
lowerneck -12.0856 -0.451288 -2.89518
upperneck 35.6323 0.0116861 -0.0967196
head 14.208 -0.450539 0.462159
rclavicle 1.16041e-014 -5.96354e-016
rhumerus -31.952 -3.90246 -16.8706
rradius 35.1424
rwrist 9.83157
rhand -20.2375 -45.408
rfingers 7.12502
rthumb 6.11053 -75.2999
lclavicle 1.16041e-014 -5.96354e-016
lhumerus -29.3128 3.07372 10.999
lradius 29.6932
lwrist 10.3026
lhand -24.2275 -29.265
lfingers 7.12502
lthumb 2.2576 0.702823
rfemur -97.5367 0.694482 27.939
rtibia 98.3783
rfoot 47.0537 3.44313
rtoes -5.96763
lfemur -17.3997 1.09779 -24.5698
ltibia 29.598
lfoot -14.6887 7.79157
ltoes 13.073
1035
root 4.74075 17.3962 2.70513 5.72665 -12.2014 -5.21363
lowerback 11.1139 0.0255954 3.96412
upperback 4.33758 0.453622 1.26983
thorax -1.68068 0.237722 -0.968987
lowerneck -11.9633 -0.462617 -3.05856
upperneck 35.6235 -0.0479188 0.133459
head 14.1771 -0.467358 0.575557
rclavicle -1.34677e-014 -2.45499e-014
rhumerus -31.9655 -3.91091 -16.8399
rradius 35.1026
rwrist 9.86126
rhand -20.2523 -45.091
rfingers 7.12502
rthumb 6.09625 -74.9833
lclavicle -1.34677e-014 -2.45499e-014
lhumerus -29.3393 2.99462 11.0194
lradius 29.6519
lwrist 10.1216
lhand -24.2025 -30.8209
lfingers 7.12502
lthumb 2.2818 -0.853406
rfemur -97.5769 0.679109 27.9253
rtibia 98.3721
rfoot 46.9559 3.69644
rtoes -6.40793
lfemur -17.4044 1.11565 -24.5928
ltibia 29.5196
lfoot -14.6744 7.7181
ltoes 13.3364
1036
root 4.73608 17.393 2.70436 5.80885 -12.1879 -5.30758
lowerback 11.0469 0.034658 4.00071
upperback 4.30629 0.468051 1.30706
thorax -1.67599 0.244724 -0.952419
lowerneck -11.9365 -0.482321 -3.12317
upperneck 35.6607 -0.086193 0.205099
head 14.1889 -0.483488 0.610349
rclavicle 7.1811e-015 7.95139e-016
rhumerus -31.9858 -3.91171 -16.801
rradius 35.0822
rwrist 9.94657
rhand -19.9945 -45.0602
rfingers 7.12502
rthumb 6.34517 -74.9452
lclavicle 7.1811e-015 7.95139e-016
lhumerus -29.326 2.78815 11.1052
lradius 29.4297
lwrist 9.99829
lhand -24.1858 -32.6106
lfingers 7.12502
lthumb 2.29793 -2.64322
rfemur -97.6354 0.754733 28.0372
rtibia 98.3416
rfoot 46.8832 3.65996
rtoes -6.98242
lfemur -17.4338 1.19866 -24.4845
ltibia 29.4701
lfoot -14.5715 7.79491
ltoes 11.7698
1037
root 4.73323 17.3905 2.70575 5.83531 -12.1943 -5.37375
lowerback 11.0726 0.0368613 4.02953
upperback 4.29338 0.476301 1.32992
thorax -1.70291 0.248248 -0.946075
lowerneck -12.0605 -0.488178 -3.08724
upperneck 35.7463 -0.0805988 0.152775
head 14.2565 -0.484483 0.583666
rclavicle 1.37161e-014 -3.58806e-014
rhumerus -31.9642 -3.97486 -16.7963
rradius 35.0759
rwrist 10.1287
rhand -19.6517 -45.4263
rfingers 7.12502
rthumb 6.67607 -75.301
lclavicle 1.37161e-014 -3.58806e-014
lhumerus -29.3636 2.66289 11.1396
lradius 29.3023
lwrist 10.0065
lhand -24.1389 -33.1924
lfingers 7.12502
lthumb 2.34317 -3.2255
rfemur -97.6219 0.800122 28.1025
rtibia 98.3101
rfoot 46.9045 3.5244
rtoes -6.89774
lfemur -17.4051 1.26902 -24.4213
ltibia 29.4617
lfoot -14.4985 7.91244
ltoes 10.2119
1038
root 4.73307 17.3921 2.70555 5.83355 -12.2347 -5.40438
lowerback 11.1478 0.0443565 4.0378
upperback 4.29167 0.491205 1.33909
thorax -1.74503 0.254814 -0.943449
lowerneck -12.1995 -0.493621 -3.09477
upperneck 35.8383 -0.0819788 0.15666
head 14.3308 -0.486948 0.586472
rclavicle -2.56184e-014 -1.03368e-014
rhumerus -31.9467 -3.92842 -16.8229
rradius 35.108
rwrist 10.1073
rhand -19.5261 -45.6707
rfingers 7.12502
rthumb 6.79733 -75.5415
lclavicle -2.56184e-014 -1.03368e-014
lhumerus -29.3943 2.68669 11.1379
lradius 29.3441
lwrist 9.99204
lhand -24.2778 -33.6232
lfingers 7.12502
lthumb 2.20904 -3.65492
rfemur -97.5796 0.818169 28.1344
rtibia 98.2878
rfoot 46.9642 3.29103
rtoes -6.54933
lfemur -17.3687 1.32009 -24.3967
ltibia 29.4639
lfoot -14.5478 7.88622
ltoes 10.8373
1039
root 4.73196 17.3908 2.7054 5.82544 -12.2717 -5.41034
lowerback 11.1719 0.0515467 4.01943
upperback 4.288 0.500302 1.34568
thorax -1.7619 0.258788 -0.927574
lowerneck -12.2447 -0.507371 -3.11276
upperneck 35.926 -0.0904351 0.141925
head 14.3823 -0.496393 0.582415
rclavicle 7.42958e-015 1.44119e-014
rhumerus -31.9658 -3.79368 -16.8332
rradius 35.1844
rwrist 9.85724
rhand -19.5973 -45.6192
rfingers 7.12502
rthumb 6.7286 -75.4923
lclavicle 7.42958e-015 1.44119e-014
lhumerus -29.3719 2.78836 11.1232
lradius 29.4144
lwrist 10.0375
lhand -24.4911 -32.5214
lfingers 7.12502
lthumb 2.00309 -2.55105
rfemur -97.5547 0.83495 28.1588
rtibia 98.2718
rfoot 46.9583 3.02857
rtoes -6.31916
lfemur -17.3459 1.41603 -24.403
ltibia 29.4876
lfoot -14.6169 7.86248
ltoes 11.0786
1040
root 4.73 17.3874 2.70737 5.78944 -12.2896 -5.38719
lowerback 11.1743 0.053247 3.97508
upperback 4.31644 0.496853 1.34508
thorax -1.73431 0.257468 -0.90279
lowerneck -12.3514 -0.523968 -3.06158
upperneck 36.0177 -0.0814394 0.0219998
head 14.4497 -0.503087 0.525622
rclavicle 1.21756e-015 1.16289e-014
rhumerus -31.9959 -3.87271 -16.7912
rradius 35.2417
rwrist 9.73962
rhand -19.569 -45.5443
rfingers 7.12502
rthumb 6.75586 -75.4165
lclavicle 1.21756e-015 1.16289e-014
lhumerus -29.3208 2.90422 11.1087
lradius 29.5591
lwrist 10.4294
lhand -24.6531 -29.8788
lfingers 7.12502
lthumb 1.84664 0.0929624
rfemur -97.5069 0.835393 28.1615
rtibia 98.2572
rfoot 46.9766 2.95479
rtoes -6.0994
lfemur -17.3138 1.54006 -24.4476
ltibia 29.549
lfoot -14.6318 7.90518
ltoes 10.2224
1041
root 4.72937 17.3863 2.70979 5.76391 -12.2972 -5.44867
lowerback 11.1969 0.0668051 4.04585
upperback 4.34557 0.522465 1.36217
thorax -1.7143 0.271152 -0.927935
lowerneck -12.3849 -0.54514 -2.9679
upperneck 36.0314 -0.0713815 -0.15889
head 14.464 -0.510225 0.436405
rclavicle -2.07978e-014 -1.80894e-014
rhumerus -32.0537 -4.04201 -16.7154
rradius 35.2297
rwrist 9.80341
rhand -19.6492 -45.5307
rfingers 7.12502
rthumb 6.67849 -75.4053
lclavicle -2.07978e-014 -1.80894e-014
lhumerus -29.2249 2.91055 11.1473
lradius 29.6318
lwrist 10.7662
lhand -24.6939 -28.7626
lfingers 7.12502
lthumb 1.80718 1.20948
rfemur -97.4262 0.847234 28.2341
rtibia 98.2377
rfoot 46.9695 3.08465
rtoes -6.14233
lfemur -17.2934 1.6134 -24.3846
ltibia 29.6199
lfoot -14.6573 7.89
ltoes 9.90438
1042
root 4.72737 17.3875 2.70904 5.80484 -12.276 -5.57484
lowerback 11.2118 0.0706859 4.14799
upperback 4.31873 0.541146 1.403
thorax -1.74855 0.280009 -0.945377
lowerneck -12.2911 -0.547669 -2.88931
upperneck 36.0177 -0.0484509 -0.303674
head 14.436 -0.508786 0.366833
rclavicle 3.83903e-014 -2.68359e-015
rhumerus -32.0929 -4.03577 -16.7014
rradius 35.2233
rwrist 9.83459
rhand -19.9652 -45.5755
rfingers 7.12502
rthumb 6.37345 -75.4597
lclavicle 3.83903e-014 -2.68359e-015
lhumerus -29.2069 2.85684 11.1609
lradius 29.641
lwrist 10.8023
lhand -24.5479 -28.6105
lfingers 7.12502
lthumb 1.94825 1.36032
rfemur -97.3838 0.89584 28.361
rtibia 98.1719
rfoot 47.0661 2.54021
rtoes -5.64392
lfemur -17.3791 1.58885 -24.2087
ltibia 29.6723
lfoot -14.7061 7.78154
ltoes 10.2742
1043
root 4.72471 17.3881 2.70692 5.88624 -12.2573 -5.59551
lowerback 11.1536 0.0659325 4.12825
upperback 4.29623 0.530831 1.41012
thorax -1.74113 0.27466 -0.925387
lowerneck -12.2704 -0.545398 -2.81563
upperneck 35.9982 -0.0297547 -0.406286
head 14.4219 -0.504371 0.314662
rclavicle 3.13831e-014 -1.19271e-015
rhumerus -32.0509 -4.14537 -16.6917
rradius 35.0956
rwrist 10.0143
rhand -20.2285 -45.5597
rfingers 7.12502
rthumb 6.1192 -75.4513
lclavicle 3.13831e-014 -1.19271e-015
lhumerus -29.2093 2.87309 11.1308
lradius 29.6453
lwrist 10.8224
lhand -24.5919 -28.2893
lfingers 7.12502
lthumb 1.90575 1.68196
rfemur -97.4532 0.931379 28.3927
rtibia 98.1265
rfoot 47.2183 1.86471
rtoes -4.98592
lfemur -17.508 1.53815 -24.148
ltibia 29.6923
lfoot -14.7341 7.68072
ltoes 10.5671
1044
root 4.7238 17.3907 2.70717 5.92547 -12.3027 -5.57832
lowerback 11.0683 0.0857761 4.10756
upperback 4.31111 0.549179 1.39215
thorax -1.67837 0.285039 -0.934073
lowerneck -12.2564 -0.565801 -2.8482
upperneck 35.9426 -0.070469 -0.354086
head 14.3933 -0.518386 0.335647
rclavicle -1.58531e-014 1.68967e-015
rhumerus -31.9813 -4.46133 -16.5987
rradius 34.7874
rwrist 10.3989
rhand -20.3686 -45.3394
rfingers 7.12502
rthumb 5.98395 -75.2349
lclavicle -1.58531e-014 1.68967e-015
lhumerus -29.188 2.91549 11.108
lradius 29.6367
lwrist 10.8012
lhand -24.6955 -28.4498
lfingers 7.12502
lthumb 1.80563 1.52234
rfemur -97.4904 0.974469 28.3868
rtibia 98.1097
rfoot 47.1956 2.33847
rtoes -5.51818
lfemur -17.5413 1.5534 -24.1627
ltibia 29.6806
lfoot -14.6903 7.69224
ltoes 10.5207
